<svg width="233" height="40" viewBox="0 0 233 40" fill="none" xmlns="http://www.w3.org/2000/svg">
<g filter="url(#filter0_d_194_980)">
<path d="M15.918 26.972C15.7407 27.6307 15.652 28.1373 15.652 28.492C15.652 29.0493 15.842 29.4673 16.222 29.746C16.602 30.0247 17.248 30.1893 18.16 30.24L18.008 31C16.26 30.924 14.056 30.886 11.396 30.886C8.10267 30.886 5.696 30.924 4.176 31L4.328 30.24C5.24 30.1893 5.924 30.088 6.38 29.936C6.836 29.784 7.19067 29.4927 7.444 29.062C7.72267 28.6313 7.98867 27.9347 8.242 26.972L13.258 8.124C13.4353 7.288 13.524 6.70533 13.524 6.376C13.524 5.86933 13.3467 5.502 12.992 5.274C12.6373 5.046 11.9787 4.90667 11.016 4.856L11.206 4.096C12.6753 4.172 14.9933 4.21 18.16 4.21C19.376 4.21 20.288 4.19733 20.896 4.172L23.708 4.134C27.052 4.134 29.522 4.60267 31.118 5.54C32.7393 6.47733 33.55 7.92133 33.55 9.872C33.55 11.7973 32.8787 13.5327 31.536 15.078C30.2187 16.6233 28.3567 17.852 25.95 18.764C23.5687 19.6507 20.82 20.132 17.704 20.208L15.918 26.972ZM17.932 19.41C19.7053 19.2833 21.162 18.6753 22.302 17.586C23.442 16.4713 24.2653 15.1287 24.772 13.558C25.2787 11.9873 25.532 10.4167 25.532 8.846C25.532 7.52867 25.2913 6.54067 24.81 5.882C24.354 5.198 23.6193 4.856 22.606 4.856C22.2007 4.856 21.922 4.98267 21.77 5.236C21.618 5.464 21.4533 5.98333 21.276 6.794C21.2253 6.97133 21.1747 7.174 21.124 7.402C21.0733 7.63 21.01 7.87066 20.934 8.124L17.932 19.41ZM48.169 10.746C49.309 10.746 50.2083 11.1007 50.867 11.81C51.5257 12.494 51.855 13.368 51.855 14.432C51.855 15.724 51.4497 16.8387 50.639 17.776C49.8283 18.7133 48.8023 19.182 47.561 19.182C46.6237 19.182 45.9143 18.9413 45.433 18.46C44.9517 17.9787 44.711 17.2693 44.711 16.332C44.711 15.2173 45.1163 14.204 45.927 13.292C46.7377 12.38 47.713 11.8227 48.853 11.62C48.549 11.544 48.3717 11.506 48.321 11.506C47.5104 11.506 46.7757 11.6707 46.117 12C45.4583 12.3293 44.7237 13.14 43.913 14.432C43.1277 15.724 42.2917 17.7 41.405 20.36L38.631 31H31.905L36.541 14.508C36.6423 14.128 36.693 13.7987 36.693 13.52C36.693 13.1147 36.5283 12.912 36.199 12.912C35.7937 12.912 35.4263 13.0893 35.097 13.444C34.7677 13.7987 34.4383 14.4193 34.109 15.306L33.235 17.624H32.513L33.577 14.66C34.5143 12.0507 36.4017 10.746 39.239 10.746C40.455 10.746 41.3417 11.0753 41.899 11.734C42.4563 12.3927 42.735 13.2413 42.735 14.28C42.735 14.6347 42.7223 14.9007 42.697 15.078C43.4317 13.482 44.217 12.3673 45.053 11.734C45.9143 11.0753 46.953 10.746 48.169 10.746ZM69.4968 14.09C69.4968 16.218 68.3061 18.08 65.9248 19.676C63.5688 21.2467 60.7568 22.412 57.4888 23.172C57.4128 23.856 57.3748 24.502 57.3748 25.11C57.3748 26.5033 57.6408 27.466 58.1728 27.998C58.7048 28.53 59.4901 28.796 60.5288 28.796C61.1621 28.796 61.9728 28.5807 62.9608 28.15C63.9741 27.7193 64.9368 27.048 65.8488 26.136L66.4568 26.44C65.4941 27.884 64.1895 29.1 62.5428 30.088C60.8961 31.0507 58.9961 31.532 56.8428 31.532C54.9681 31.532 53.3975 31.0633 52.1308 30.126C50.8895 29.1887 50.2688 27.8713 50.2688 26.174C50.2688 23.6913 50.9021 21.2593 52.1688 18.878C53.4608 16.4713 55.2088 14.5207 57.4128 13.026C59.6421 11.506 62.0995 10.746 64.7848 10.746C66.2035 10.746 67.3435 11.0373 68.2048 11.62C69.0661 12.1773 69.4968 13.0007 69.4968 14.09ZM63.9488 11.468C63.2395 11.468 62.4415 12.0127 61.5548 13.102C60.6935 14.1913 59.8955 15.5973 59.1608 17.32C58.4261 19.0427 57.9068 20.7653 57.6028 22.488C58.9455 21.7027 60.1108 20.8413 61.0988 19.904C62.1628 18.8653 62.9988 17.7127 63.6068 16.446C64.2401 15.1793 64.5568 13.8367 64.5568 12.418C64.5568 11.7847 64.3541 11.468 63.9488 11.468ZM89.9824 24.844H90.7044L89.7544 27.618C88.8424 30.2273 87.031 31.532 84.3204 31.532C82.699 31.532 81.559 31.0507 80.9004 30.088C80.5204 29.5053 80.3304 28.7833 80.3304 27.922C80.3304 27.5167 80.3937 26.972 80.5204 26.288C79.735 28.0867 78.8484 29.4167 77.8604 30.278C76.8724 31.114 75.6184 31.532 74.0984 31.532C72.6797 31.532 71.5017 31.076 70.5644 30.164C69.6524 29.252 69.1964 27.8587 69.1964 25.984C69.1964 23.9827 69.703 21.7913 70.7164 19.41C71.755 17.0033 73.2497 14.964 75.2004 13.292C77.1764 11.5947 79.469 10.746 82.0784 10.746C83.2944 10.746 84.067 11.0627 84.3964 11.696L85.9924 5.654C86.119 5.198 86.1824 4.84333 86.1824 4.59C86.1824 4.08333 85.9797 3.716 85.5744 3.488C85.1944 3.26 84.5357 3.146 83.5984 3.146L83.8644 2.348C85.891 2.32267 87.7277 2.18333 89.3744 1.93C91.021 1.67667 92.617 1.29667 94.1624 0.789999L86.7144 27.77C86.5877 28.074 86.5244 28.3653 86.5244 28.644C86.5244 29.1253 86.7397 29.366 87.1704 29.366C87.905 29.366 88.5764 28.568 89.1844 26.972L89.9824 24.844ZM77.2144 29.176C77.7717 29.176 78.481 28.5173 79.3424 27.2C80.2037 25.8827 81.0397 23.894 81.8504 21.234L84.1684 12.57C84.067 12.2407 83.9277 12 83.7504 11.848C83.573 11.696 83.307 11.62 82.9524 11.62C82.167 11.62 81.2424 12.38 80.1784 13.9C79.1144 15.3947 78.2024 17.3327 77.4424 19.714C76.6824 22.07 76.3024 24.502 76.3024 27.01C76.3024 27.77 76.3657 28.3273 76.4924 28.682C76.619 29.0113 76.8597 29.176 77.2144 29.176ZM98.5529 5.312C98.5529 3.99466 98.9709 2.994 99.8069 2.31C100.668 1.626 101.796 1.284 103.189 1.284C104.304 1.284 105.14 1.49933 105.697 1.93C106.28 2.36067 106.571 3.00667 106.571 3.868C106.571 5.03333 106.128 5.98333 105.241 6.718C104.354 7.45267 103.24 7.82 101.897 7.82C100.808 7.82 99.9715 7.60467 99.3889 7.174C98.8315 6.74333 98.5529 6.12266 98.5529 5.312ZM96.9569 14.508C97.0835 14.1787 97.1469 13.862 97.1469 13.558C97.1469 13.1273 96.9695 12.912 96.6149 12.912C96.2095 12.912 95.8422 13.0893 95.5129 13.444C95.1835 13.7987 94.8542 14.4193 94.5249 15.306L93.6509 17.624H92.9289L93.9929 14.66C94.9302 12.0507 96.8175 10.746 99.6549 10.746C101.023 10.746 102.024 11.0753 102.657 11.734C103.29 12.3927 103.607 13.2287 103.607 14.242C103.607 14.7993 103.506 15.4073 103.303 16.066L99.3509 27.77C99.2242 28.2007 99.1609 28.5047 99.1609 28.682C99.1609 29.138 99.3762 29.366 99.8069 29.366C100.542 29.366 101.213 28.568 101.821 26.972L102.619 24.844H103.341L102.391 27.618C101.479 30.2273 99.6675 31.532 96.9569 31.532C95.6649 31.532 94.6642 31.228 93.9549 30.62C93.2455 30.012 92.8909 29.1127 92.8909 27.922C92.8909 27.1113 93.0809 26.136 93.4609 24.996L96.9569 14.508ZM119.412 11.506C118.171 11.506 116.98 12.19 115.84 13.558C114.726 14.9007 113.814 16.6487 113.104 18.802C112.42 20.93 112.078 23.096 112.078 25.3C112.078 26.6173 112.344 27.5927 112.876 28.226C113.408 28.8593 114.156 29.176 115.118 29.176C115.929 29.176 116.702 28.948 117.436 28.492C118.171 28.036 118.918 27.2507 119.678 26.136L120.438 26.44C118.26 29.8347 115.359 31.532 111.736 31.532C109.71 31.532 108.076 31.038 106.834 30.05C105.593 29.0367 104.972 27.5293 104.972 25.528C104.972 23.2733 105.555 21.006 106.72 18.726C107.886 16.4207 109.532 14.5207 111.66 13.026C113.788 11.506 116.208 10.746 118.918 10.746C120.438 10.746 121.642 11.126 122.528 11.886C123.415 12.646 123.858 13.5833 123.858 14.698C123.858 15.5087 123.656 16.3067 123.25 17.092C122.845 17.852 122.3 18.4727 121.616 18.954C120.932 19.4353 120.198 19.676 119.412 19.676C118.703 19.676 118.095 19.448 117.588 18.992C117.082 18.5107 116.828 17.852 116.828 17.016C116.828 15.8253 117.208 14.774 117.968 13.862C118.728 12.9247 119.64 12.2913 120.704 11.962C120.375 11.658 119.944 11.506 119.412 11.506ZM130.637 27.77C130.561 28.0233 130.523 28.264 130.523 28.492C130.523 29.0747 130.789 29.366 131.321 29.366C131.827 29.366 132.334 29.1 132.841 28.568C133.347 28.0107 133.753 27.314 134.057 26.478L134.665 24.844H135.387L134.665 26.934C134.158 28.4033 133.385 29.5433 132.347 30.354C131.308 31.1393 130.067 31.532 128.623 31.532C127.204 31.532 126.14 31.1647 125.431 30.43C124.747 29.6953 124.405 28.6947 124.405 27.428C124.405 26.7693 124.531 25.9587 124.785 24.996L128.509 12.038H125.051L125.241 11.278H128.737L130.333 5.692C132.993 5.66667 135.298 5.48933 137.249 5.16L135.463 11.278H139.263L139.149 12.038H135.235L130.637 27.77ZM156.98 24.844H157.702L156.752 27.618C155.84 30.2273 154.028 31.532 151.318 31.532C149.772 31.532 148.67 31.0887 148.012 30.202C147.581 29.5687 147.366 28.796 147.366 27.884C147.366 27.6053 147.378 27.39 147.404 27.238C146.796 28.7833 146.01 29.8853 145.048 30.544C144.085 31.2027 142.945 31.532 141.628 31.532C140.057 31.532 138.879 31.1267 138.094 30.316C137.308 29.5053 136.916 28.3273 136.916 26.782C136.916 24.4007 137.549 21.956 138.816 19.448C140.108 16.94 141.704 14.8627 143.604 13.216C145.529 11.5693 147.366 10.746 149.114 10.746C150.558 10.746 151.343 11.468 151.47 12.912L151.964 11.316C154.421 11.2907 156.714 11.1007 158.842 10.746L153.712 27.77C153.61 28.0993 153.56 28.4033 153.56 28.682C153.56 29.138 153.762 29.366 154.168 29.366C154.902 29.366 155.574 28.568 156.182 26.972L156.98 24.844ZM144.934 28.948C145.466 28.948 145.998 28.5427 146.53 27.732C147.062 26.9213 147.67 25.4647 148.354 23.362L151.09 14.242C151.115 14.1153 151.128 13.9253 151.128 13.672C151.128 12.9627 150.887 12.608 150.406 12.608C149.696 12.608 148.822 13.3427 147.784 14.812C146.77 16.2813 145.896 18.1307 145.162 20.36C144.427 22.5893 144.06 24.7807 144.06 26.934C144.06 27.6687 144.123 28.188 144.25 28.492C144.376 28.796 144.604 28.948 144.934 28.948ZM175.069 10.746C176.817 10.746 178.121 11.278 178.983 12.342C179.844 13.406 180.275 14.9387 180.275 16.94C180.275 19.0173 179.768 21.196 178.755 23.476C177.767 25.756 176.335 27.6687 174.461 29.214C172.586 30.7593 170.433 31.532 168.001 31.532C167.393 31.532 166.823 31.456 166.291 31.304C165.759 31.152 165.315 30.9493 164.961 30.696C164.454 30.5693 163.96 30.506 163.479 30.506C162.161 30.506 160.553 30.8733 158.653 31.608L158.083 31.342C158.387 30.734 158.665 29.9867 158.919 29.1L165.911 5.654C166.037 5.198 166.101 4.84333 166.101 4.59C166.101 4.08333 165.898 3.716 165.493 3.488C165.113 3.26 164.454 3.146 163.517 3.146L163.783 2.348C165.784 2.32267 167.595 2.18333 169.217 1.93C170.838 1.67667 172.421 1.29667 173.967 0.789999L169.901 14.584C170.635 13.2667 171.421 12.304 172.257 11.696C173.093 11.0627 174.03 10.746 175.069 10.746ZM166.291 30.278C167.38 30.278 168.457 29.4927 169.521 27.922C170.61 26.326 171.497 24.3627 172.181 22.032C172.865 19.7013 173.207 17.51 173.207 15.458C173.207 14.622 173.131 14.052 172.979 13.748C172.852 13.444 172.624 13.292 172.295 13.292C171.813 13.292 171.307 13.6087 170.775 14.242C170.243 14.85 169.723 15.7113 169.217 16.826L165.303 30.126C165.708 30.2273 166.037 30.278 166.291 30.278ZM187.578 27.77C187.502 28.0233 187.464 28.264 187.464 28.492C187.464 28.796 187.528 29.024 187.654 29.176C187.806 29.3027 187.984 29.366 188.186 29.366C188.44 29.366 188.731 29.214 189.06 28.91C189.415 28.5807 189.77 27.9347 190.124 26.972L190.922 24.844H191.644L190.694 27.618C190.188 29.0873 189.44 30.1133 188.452 30.696C187.464 31.2533 186.413 31.532 185.298 31.532C184.032 31.532 183.044 31.2027 182.334 30.544C181.625 29.8853 181.27 28.9353 181.27 27.694C181.27 26.9087 181.422 26.0093 181.726 24.996L187.54 5.654C187.667 5.198 187.73 4.84333 187.73 4.59C187.73 4.08333 187.528 3.716 187.122 3.488C186.742 3.26 186.084 3.146 185.146 3.146L185.412 2.348C187.414 2.32267 189.225 2.18333 190.846 1.93C192.468 1.67667 194.051 1.29667 195.596 0.789999L187.578 27.77ZM212.294 14.09C212.294 16.218 211.103 18.08 208.722 19.676C206.366 21.2467 203.554 22.412 200.286 23.172C200.21 23.856 200.172 24.502 200.172 25.11C200.172 26.5033 200.438 27.466 200.97 27.998C201.502 28.53 202.287 28.796 203.326 28.796C203.959 28.796 204.77 28.5807 205.758 28.15C206.771 27.7193 207.734 27.048 208.646 26.136L209.254 26.44C208.291 27.884 206.986 29.1 205.34 30.088C203.693 31.0507 201.793 31.532 199.64 31.532C197.765 31.532 196.194 31.0633 194.928 30.126C193.686 29.1887 193.066 27.8713 193.066 26.174C193.066 23.6913 193.699 21.2593 194.966 18.878C196.258 16.4713 198.006 14.5207 200.21 13.026C202.439 11.506 204.896 10.746 207.582 10.746C209 10.746 210.14 11.0373 211.002 11.62C211.863 12.1773 212.294 13.0007 212.294 14.09ZM206.746 11.468C206.036 11.468 205.238 12.0127 204.352 13.102C203.49 14.1913 202.692 15.5973 201.958 17.32C201.223 19.0427 200.704 20.7653 200.4 22.488C201.742 21.7027 202.908 20.8413 203.896 19.904C204.96 18.8653 205.796 17.7127 206.404 16.446C207.037 15.1793 207.354 13.8367 207.354 12.418C207.354 11.7847 207.151 11.468 206.746 11.468ZM215.223 30.468C215.603 30.6453 216.047 30.734 216.553 30.734C217.339 30.734 217.985 30.4807 218.491 29.974C219.023 29.442 219.289 28.7327 219.289 27.846C219.289 27.0353 219.099 26.1867 218.719 25.3C218.339 24.388 217.795 23.3493 217.085 22.184C216.249 20.8413 215.654 19.79 215.299 19.03C214.97 18.27 214.805 17.4213 214.805 16.484C214.805 14.7867 215.451 13.406 216.743 12.342C218.035 11.278 219.91 10.746 222.367 10.746C224.242 10.746 225.8 11.088 227.041 11.772C228.283 12.4307 228.903 13.5453 228.903 15.116C228.903 15.9773 228.663 16.7627 228.181 17.472C227.7 18.156 227.041 18.498 226.205 18.498C225.445 18.498 224.85 18.2067 224.419 17.624C223.989 17.016 223.773 16.2433 223.773 15.306C223.773 14.5713 223.887 13.8873 224.115 13.254C224.369 12.5953 224.66 12.0887 224.989 11.734C224.787 11.6327 224.47 11.582 224.039 11.582C223.153 11.582 222.481 11.848 222.025 12.38C221.569 12.8867 221.341 13.634 221.341 14.622C221.341 15.2553 221.481 15.876 221.759 16.484C222.038 17.0667 222.494 17.89 223.127 18.954L223.583 19.714C224.419 21.158 225.002 22.336 225.331 23.248C225.686 24.1347 225.863 24.996 225.863 25.832C225.863 26.896 225.572 27.8587 224.989 28.72C224.407 29.5813 223.545 30.2653 222.405 30.772C221.265 31.2787 219.885 31.532 218.263 31.532C216.211 31.532 214.527 31.1647 213.209 30.43C211.892 29.67 211.233 28.416 211.233 26.668C211.233 25.7053 211.474 24.9073 211.955 24.274C212.411 23.6153 213.032 23.286 213.817 23.286C214.552 23.286 215.147 23.59 215.603 24.198C216.059 24.806 216.287 25.6167 216.287 26.63C216.287 27.3393 216.186 27.9727 215.983 28.53C215.806 29.0873 215.553 29.7333 215.223 30.468Z" fill="url(#paint0_linear_194_980)" shape-rendering="crispEdges"/>
</g>
<defs>
<filter id="filter0_d_194_980" x="0.175781" y="0.790009" width="232.728" height="38.818" filterUnits="userSpaceOnUse" color-interpolation-filters="sRGB">
<feFlood flood-opacity="0" result="BackgroundImageFix"/>
<feColorMatrix in="SourceAlpha" type="matrix" values="0 0 0 0 0 0 0 0 0 0 0 0 0 0 0 0 0 0 127 0" result="hardAlpha"/>
<feOffset dy="4"/>
<feGaussianBlur stdDeviation="2"/>
<feComposite in2="hardAlpha" operator="out"/>
<feColorMatrix type="matrix" values="0 0 0 0 0 0 0 0 0 0 0 0 0 0 0 0 0 0 0.25 0"/>
<feBlend mode="normal" in2="BackgroundImageFix" result="effect1_dropShadow_194_980"/>
<feBlend mode="normal" in="SourceGraphic" in2="effect1_dropShadow_194_980" result="shape"/>
</filter>
<linearGradient id="paint0_linear_194_980" x1="25.805" y1="8.8225e-06" x2="236.967" y2="37.5802" gradientUnits="userSpaceOnUse">
<stop stop-color="#737BC5"/>
<stop offset="0.273958" stop-color="#574EBC" stop-opacity="0.813708"/>
<stop offset="0.701042" stop-color="#703A92" stop-opacity="0.68"/>
<stop offset="1" stop-color="#6B3270" stop-opacity="0.61"/>
</linearGradient>
</defs>
</svg>
